<?xml version="1.0" standalone="no"?>
<!DOCTYPE svg PUBLIC "-//W3C//DTD SVG 20010904//EN"
 "http://www.w3.org/TR/2001/REC-SVG-20010904/DTD/svg10.dtd">
<svg version="1.0" xmlns="http://www.w3.org/2000/svg"
 width="260.000000pt" height="260.000000pt" viewBox="0 0 260.000000 260.000000"
 preserveAspectRatio="xMidYMid meet">
<metadata>
Created by potrace 1.14, written by Peter Selinger 2001-2017
</metadata>
<g transform="translate(0.000000,260.000000) scale(0.100000,-0.100000)"
fill="#000000" stroke="none">
<path d="M2545 2473 c2 -18 -1 -36 -6 -39 -5 -3 -9 -2 -8 3 4 25 -1 35 -14 24
-8 -6 -16 -8 -20 -5 -3 3 -10 -3 -16 -14 -9 -17 -8 -21 7 -25 13 -4 13 -5 -4
-6 -20 -1 -56 -31 -38 -31 5 0 2 -5 -6 -11 -12 -8 -9 -9 10 -5 14 3 19 3 12 0
-6 -3 -10 -10 -6 -15 3 -5 -7 -4 -22 2 -28 10 -28 10 -9 -11 10 -11 15 -23 12
-27 -4 -3 -7 0 -7 7 0 10 -4 9 -17 -3 -16 -14 -22 -14 -53 -1 -34 14 -35 14
-12 -4 13 -10 20 -21 16 -25 -11 -11 -26 -8 -19 3 3 6 1 10 -4 10 -6 0 -11 -4
-11 -10 0 -5 -5 -9 -11 -7 -6 1 -14 -5 -16 -13 -3 -9 -1 -11 4 -5 11 13 33 17
33 6 0 -5 -7 -11 -15 -15 -8 -3 -15 -11 -15 -18 0 -9 3 -9 10 2 7 12 9 10 7
-8 -2 -28 -14 -28 -22 -1 -6 17 -9 18 -16 8 -4 -7 -3 -19 2 -26 13 -15 2 -36
-14 -26 -7 4 -20 9 -30 10 -15 3 -16 1 -5 -11 7 -8 18 -11 23 -8 6 3 6 1 2 -4
-5 -5 -13 -10 -18 -10 -22 -3 -23 -5 -9 -14 11 -7 6 -8 -16 -4 -20 4 -34 2
-39 -7 -5 -7 -4 -10 2 -6 6 4 14 0 17 -9 3 -8 2 -12 -4 -9 -14 9 -12 -9 3 -24
10 -11 8 -11 -10 0 -12 7 -20 16 -17 20 2 4 0 10 -5 14 -6 3 -8 -3 -6 -14 3
-14 -6 -24 -30 -35 -33 -16 -38 -28 -21 -55 6 -10 5 -12 -2 -7 -7 4 -12 1 -12
-6 0 -10 -2 -10 -9 1 -5 8 -7 21 -3 29 3 10 0 13 -9 10 -9 -3 -13 -16 -11 -36
2 -19 -1 -32 -8 -32 -6 0 -8 5 -4 13 5 8 3 8 -9 -2 -15 -12 -15 -31 -1 -31 3
0 2 6 -2 13 -5 8 -2 8 9 -2 18 -14 23 -26 8 -16 -5 3 -13 1 -16 -5 -5 -8 -11
-8 -20 0 -10 8 -15 8 -21 -1 -4 -7 -3 -9 3 -6 15 10 24 -20 10 -30 -14 -10
-27 -11 -42 -1 -15 9 -60 -34 -62 -60 -1 -14 2 -20 9 -16 7 4 8 2 4 -5 -6 -9
-11 -9 -24 1 -14 12 -14 10 -3 -11 8 -15 9 -21 2 -17 -10 6 -15 -6 -12 -26 2
-15 -17 -8 -23 8 -3 8 -2 13 3 10 5 -3 11 1 15 9 3 8 0 17 -6 21 -7 5 -8 2 -3
-6 6 -10 4 -12 -8 -7 -10 4 -16 2 -14 -6 1 -7 -4 -11 -11 -9 -8 1 -11 -2 -8
-7 9 -15 -13 -24 -28 -12 -9 8 -13 7 -13 -4 0 -8 5 -11 10 -8 7 4 8 -1 3 -13
-5 -14 0 -12 22 9 19 19 29 23 29 13 0 -8 -3 -15 -6 -14 -19 2 -24 -4 -11 -13
13 -9 12 -10 -2 -5 -11 3 -21 -2 -27 -12 -9 -16 -10 -16 -17 1 -5 14 -9 15
-14 6 -12 -18 -1 -38 18 -33 14 5 14 4 -1 -6 -10 -6 -14 -16 -10 -23 4 -7 -1
-6 -10 2 -10 8 -21 10 -25 6 -4 -4 -1 -10 6 -12 6 -3 12 -10 12 -15 0 -6 -3
-8 -7 -5 -3 4 -15 0 -25 -10 -10 -9 -18 -13 -18 -9 0 4 -6 1 -14 -6 -8 -7 -12
-16 -9 -21 2 -4 1 -7 -4 -6 -20 3 -27 -2 -13 -11 11 -8 8 -9 -12 -4 -21 4 -26
2 -25 -12 1 -9 -5 -19 -13 -21 -13 -4 -13 -3 0 6 11 8 12 11 2 11 -8 0 -10 5
-6 13 4 7 3 9 -2 4 -5 -5 -10 -13 -10 -18 -1 -5 -2 -14 -3 -20 0 -5 -5 -7 -11
-4 -5 3 -10 1 -10 -5 0 -6 11 -8 24 -6 19 3 23 1 19 -11 -5 -12 -7 -12 -14 -1
-8 12 -13 3 -9 -17 1 -5 -7 -2 -18 8 -10 9 -21 14 -25 11 -9 -9 4 -35 14 -28
5 3 6 -2 2 -11 -4 -12 -8 -13 -13 -4 -6 9 -9 9 -13 -2 -2 -8 -3 -6 -2 3 2 10
-2 21 -7 25 -7 4 -8 1 -3 -7 6 -10 4 -12 -9 -7 -14 5 -15 3 -6 -13 13 -25 13
-27 -6 -34 -8 -3 -13 -2 -10 2 3 5 -1 9 -9 9 -8 0 -12 -4 -9 -8 2 -4 -1 -11
-7 -15 -8 -5 -4 -12 11 -24 17 -13 18 -17 6 -17 -9 0 -16 4 -16 8 0 4 -7 10
-16 13 -8 3 -12 2 -9 -4 3 -6 -6 -15 -20 -20 -14 -5 -23 -14 -20 -20 3 -5 0
-19 -8 -31 -14 -20 -16 -20 -27 -2 -9 14 -10 15 -6 1 6 -21 -35 -66 -58 -62
-17 2 -17 1 -1 -16 19 -21 8 -31 -24 -25 -19 3 -21 2 -11 -10 10 -12 9 -16 -5
-21 -13 -5 -14 -9 -3 -16 10 -7 10 -9 -2 -7 -30 3 -40 -1 -40 -18 0 -16 -2
-16 -11 -3 -9 13 -10 12 -5 -3 4 -12 -1 -21 -17 -27 -12 -5 -17 -9 -10 -9 6
-1 11 -10 10 -20 0 -11 -5 -17 -9 -15 -4 3 -8 1 -8 -5 0 -5 -8 -9 -18 -8 -10
0 -19 7 -19 14 0 10 4 10 16 0 14 -10 14 -10 4 4 -10 12 -10 18 0 29 9 11 8
11 -7 0 -10 -8 -22 -23 -26 -35 l-9 -20 0 21 c-1 11 3 24 9 30 6 6 3 10 -11
11 -16 2 -19 -2 -14 -20 5 -16 4 -18 -3 -8 -5 7 -12 9 -14 5 -3 -5 -3 -3 -2 4
5 18 -7 43 -17 36 -5 -3 -6 2 -3 10 4 9 -1 18 -10 22 -9 3 -16 11 -16 18 0 6
14 -3 30 -21 22 -25 28 -28 27 -13 -1 10 -4 18 -7 17 -7 -3 -60 39 -60 48 0 3
5 3 12 -1 7 -4 8 -3 4 4 -11 19 -34 2 -30 -21 4 -21 4 -21 -5 -2 -5 12 -5 27
1 39 7 12 7 16 0 12 -6 -3 -12 -3 -15 1 -2 5 -3 3 -1 -3 1 -6 -2 -17 -7 -25
-10 -16 -12 -5 -10 41 1 22 0 23 -9 8 -6 -10 -16 -18 -23 -18 -9 0 -9 2 -1 8
7 4 12 20 12 36 0 18 -3 24 -9 15 -4 -7 -6 -16 -3 -20 2 -4 0 -10 -5 -14 -6
-3 -8 5 -5 20 4 21 1 25 -20 25 -14 0 -28 5 -32 11 -4 8 0 9 15 4 14 -4 21 -2
21 6 0 7 -3 9 -7 6 -3 -4 -12 -2 -20 4 -7 6 -13 8 -13 4 0 -4 -8 -1 -17 6 -15
12 -16 12 -10 -4 4 -11 3 -16 -4 -12 -6 4 -7 14 -4 24 10 25 15 54 8 47 -4 -3
-15 2 -25 11 -15 14 -21 14 -31 3 -10 -10 -8 -12 8 -6 16 6 18 5 7 -5 -10 -11
-16 -10 -30 5 -9 11 -12 16 -7 13 6 -3 19 2 30 10 20 15 20 15 -2 9 -12 -4
-24 -2 -28 4 -3 6 -10 8 -14 6 -4 -3 -8 1 -8 9 0 13 3 13 18 -1 14 -12 18 -13
25 -2 4 7 4 10 -1 6 -4 -4 -14 0 -23 8 -10 11 -18 12 -25 5 -6 -6 -15 -11 -21
-11 -6 0 -5 5 2 12 17 17 15 33 -3 18 -8 -7 -15 -9 -15 -5 0 4 -8 1 -17 -6
-16 -13 -17 -12 -4 4 10 13 10 17 1 17 -9 0 -9 4 1 17 12 14 12 16 0 8 -11 -6
-13 -4 -9 7 4 8 2 21 -3 29 -6 9 -9 10 -9 2 0 -7 -7 -10 -15 -7 -17 7 -21 25
-4 22 6 -2 14 4 16 12 4 12 3 12 -5 2 -7 -11 -10 -10 -16 3 -4 11 -12 15 -22
11 -11 -4 -15 -2 -11 8 3 8 -4 21 -17 29 -19 13 -23 13 -23 2 0 -8 5 -11 10
-8 6 3 7 1 3 -5 -4 -7 -2 -10 6 -9 7 2 10 2 5 0 -4 -3 -5 -8 -3 -12 3 -4 -1
-8 -9 -8 -8 0 -13 5 -12 11 1 5 -3 10 -10 11 -6 0 -15 4 -20 9 -5 5 -3 6 5 2
7 -4 12 -1 12 8 0 8 -4 16 -9 18 -4 2 -11 13 -15 25 -6 19 -4 22 11 17 15 -5
15 -4 3 5 -9 6 -18 7 -24 1 -20 -20 -28 -9 -10 12 14 16 14 19 2 10 -13 -11
-20 -11 -37 0 -12 7 -21 16 -21 21 0 4 -4 6 -9 2 -5 -3 -13 0 -17 6 -4 7 -3 9
2 6 6 -3 16 -1 24 5 13 8 12 9 -1 5 -9 -3 -27 2 -40 11 -13 9 -25 15 -27 14
-1 -2 -10 2 -20 7 -9 6 -12 11 -6 11 5 0 15 -5 22 -12 9 -9 12 -8 12 7 0 10 3
15 8 11 4 -4 7 -13 7 -19 0 -5 7 -12 15 -14 13 -4 13 -3 0 6 -8 6 -11 11 -6
11 5 0 1 9 -9 20 -10 11 -23 20 -29 20 -6 0 -4 -5 4 -10 8 -5 10 -10 4 -10 -6
0 -22 9 -35 20 -13 11 -29 23 -34 28 -6 5 -19 13 -29 19 -16 9 -17 11 -2 16
10 4 15 3 12 -1 -6 -10 62 -57 71 -48 3 3 0 6 -8 6 -12 0 -11 2 1 10 12 8 9
10 -10 8 -18 -2 -24 1 -22 12 2 8 0 11 -4 7 -4 -4 -14 3 -21 15 -7 13 -12 17
-13 11 0 -7 -11 -12 -25 -11 -23 2 -23 3 -8 20 17 19 5 26 -13 8 -8 -8 -15 -5
-25 7 -7 10 -9 15 -5 11 5 -4 16 -2 24 5 13 9 14 9 8 0 -11 -19 -1 -16 15 4
10 11 10 14 1 9 -7 -4 -12 -2 -12 6 0 8 -3 9 -8 3 -12 -17 -34 -17 -53 1 -11
9 -19 14 -19 11 0 -4 -8 1 -18 11 -17 16 -17 18 2 36 16 14 17 18 4 13 -22 -8
-30 3 -15 21 7 10 8 13 1 9 -7 -4 -17 -1 -23 7 -9 11 -9 15 1 19 7 2 -8 3 -34
2 -26 -1 -45 2 -42 7 3 4 10 6 15 3 5 -4 9 1 9 9 0 19 -11 21 -27 5 -7 -7 -13
-7 -17 0 -4 5 -14 8 -24 5 -14 -5 -14 -4 -2 4 8 6 17 9 20 7 4 -2 7 2 7 10 0
8 -3 13 -5 10 -3 -3 -11 0 -19 6 -8 8 -13 8 -13 1 0 -6 6 -13 13 -15 7 -3 5
-6 -5 -6 -11 -1 -18 -9 -18 -22 0 -13 4 -18 13 -13 9 6 9 4 -1 -7 -9 -10 -12
-241 -12 -1086 l0 -1073 1300 0 1300 0 0 1240 c0 724 -4 1241 -10 1245 -5 3
-11 1 -15 -5 -10 -15 -23 -12 -29 8 -2 9 -3 2 -1 -15z m42 -6 c0 -8 -6 -14
-14 -14 -9 0 -10 4 -2 14 6 7 12 13 14 13 1 0 2 -6 2 -13z m-70 -33 c0 -7 -6
-10 -14 -7 -7 3 -13 8 -13 12 0 4 6 8 13 8 8 0 14 -6 14 -13z m-47 -44 c0 -5
-5 -10 -11 -10 -5 0 -7 5 -4 10 3 6 8 10 11 10 2 0 4 -4 4 -10z m-2330 -265
c7 -8 9 -15 5 -15 -4 0 -2 -7 5 -15 11 -13 10 -14 -4 -9 -9 3 -16 10 -16 16 0
5 -6 6 -12 2 -10 -6 -10 -4 0 8 10 13 10 17 0 21 -8 3 -8 6 -2 6 6 1 17 -6 24
-14z m2031 -48 c-6 -8 -8 -17 -4 -21 4 -4 -1 -4 -11 0 -15 6 -17 4 -11 -6 5
-8 4 -11 -3 -6 -5 3 -12 1 -14 -6 -3 -7 -7 -4 -12 7 -4 11 -4 16 0 13 4 -4 18
2 32 12 29 23 39 26 23 7z m-212 -184 c-12 -15 -12 -16 6 -10 l20 7 -20 -16
c-11 -8 -19 -20 -17 -26 2 -7 -3 -6 -13 2 -14 12 -14 15 6 37 26 27 38 31 18
6z m-1531 -108 c-3 -3 -9 2 -12 12 -6 14 -5 15 5 6 7 -7 10 -15 7 -18z m37
-25 c3 -5 1 -10 -4 -10 -6 0 -11 5 -11 10 0 6 2 10 4 10 3 0 8 -4 11 -10z m75
-44 c0 -2 -7 -7 -16 -10 -8 -3 -12 -2 -9 4 6 10 25 14 25 6z m110 -96 c0 -5
-4 -10 -10 -10 -5 0 -10 5 -10 10 0 6 5 10 10 10 6 0 10 -4 10 -10z m20 -60
c0 -5 -2 -10 -4 -10 -3 0 -8 5 -11 10 -3 6 -1 10 4 10 6 0 11 -4 11 -10z m870
-136 c0 -2 -11 -3 -24 -2 -14 1 -23 5 -20 9 4 7 44 0 44 -7z m-686 -25 c-10
-16 -24 -9 -24 12 0 18 2 19 15 9 8 -7 12 -16 9 -21z m629 -13 c4 -10 1 -13
-8 -9 -8 3 -12 9 -9 14 7 12 11 11 17 -5z m-33 -17 c0 -5 5 -7 12 -3 7 4 8 3
4 -5 -6 -9 -11 -9 -22 0 -17 14 -18 19 -4 19 6 0 10 -5 10 -11z m-83 -99 c-1
-11 -5 -20 -9 -20 -10 0 -10 4 -2 24 8 22 13 20 11 -4z m-103 -115 c-4 -8 -8
-15 -10 -15 -2 0 -4 7 -4 15 0 8 4 15 10 15 5 0 7 -7 4 -15z m-20 -24 c3 -5
-1 -14 -8 -20 -12 -10 -14 -9 -11 6 2 10 4 19 4 21 2 5 10 2 15 -7z"/>
<path d="M2410 2379 c0 -5 5 -7 10 -4 6 3 10 8 10 11 0 2 -4 4 -10 4 -5 0 -10
-5 -10 -11z"/>
<path d="M2382 2331 c-11 -7 -11 -9 1 -14 9 -3 21 1 27 9 10 11 10 14 -1 14
-8 0 -20 -4 -27 -9z"/>
<path d="M2255 2220 c-3 -5 -1 -10 4 -10 6 0 11 5 11 10 0 6 -2 10 -4 10 -3 0
-8 -4 -11 -10z"/>
<path d="M95 2211 c-6 -11 13 -26 22 -17 4 3 1 6 -6 6 -7 0 -9 5 -6 10 3 6 4
10 1 10 -3 0 -7 -4 -11 -9z"/>
<path d="M56 2194 c-5 -14 -4 -15 9 -4 17 14 19 20 6 20 -5 0 -12 -7 -15 -16z"/>
<path d="M106 2171 c-4 -5 3 -7 14 -4 23 6 26 13 6 13 -8 0 -17 -4 -20 -9z"/>
<path d="M2205 2169 c-3 -4 2 -6 10 -5 21 3 28 13 10 13 -9 0 -18 -4 -20 -8z"/>
<path d="M175 2070 c-8 -13 58 -51 69 -40 7 7 6 14 -2 22 -9 9 -12 9 -12 0 0
-7 -4 -12 -10 -12 -5 0 -7 6 -4 14 6 15 -32 30 -41 16z"/>
<path d="M1976 1942 c-6 -11 6 -28 21 -27 22 0 26 15 4 15 -12 0 -19 4 -16 10
3 6 4 10 1 10 -3 0 -7 -4 -10 -8z"/>
<path d="M480 1786 c0 -2 7 -9 15 -16 13 -11 14 -10 9 4 -5 14 -24 23 -24 12z"/>
<path d="M1736 1703 c-6 -14 -5 -15 5 -6 7 7 10 15 7 18 -3 3 -9 -2 -12 -12z"/>
<path d="M1719 1666 c6 -7 7 -17 3 -22 -4 -4 1 -2 11 5 19 15 16 24 -9 27 -11
2 -12 -1 -5 -10z"/>
<path d="M1688 1642 c4 -11 1 -13 -8 -7 -9 5 -11 4 -6 -3 4 -7 2 -12 -3 -12
-6 0 -11 -5 -11 -11 0 -14 27 7 40 31 6 12 5 17 -5 17 -7 0 -11 -7 -7 -15z"/>
<path d="M717 1545 c-4 -8 -3 -16 1 -19 4 -3 9 4 9 15 2 23 -3 25 -10 4z"/>
<path d="M1500 1481 c0 -5 7 -12 16 -15 14 -5 15 -4 4 9 -14 17 -20 19 -20 6z"/>
<path d="M875 1380 c3 -5 8 -10 11 -10 2 0 4 5 4 10 0 6 -5 10 -11 10 -5 0 -7
-4 -4 -10z"/>
<path d="M1398 1363 c6 -2 9 -10 6 -15 -4 -7 -2 -8 5 -4 13 9 5 26 -12 25 -9
0 -8 -2 1 -6z"/>
<path d="M1337 1311 c-4 -17 -3 -21 5 -13 5 5 8 16 6 23 -3 8 -7 3 -11 -10z"/>
<path d="M1260 1210 c-8 -5 -12 -11 -10 -14 3 -2 14 2 24 10 22 15 10 19 -14
4z"/>
<path d="M1180 1099 c0 -5 5 -7 10 -4 6 3 10 8 10 11 0 2 -4 4 -10 4 -5 0 -10
-5 -10 -11z"/>
</g>
</svg>
